PathFileType	4	(X/Y/Z)	C:\Users\Basilio\Documents\Thesis Gigler\squatting_fais\c3dfiles\054\SLS_back_pre3\markers_experimental.trc
DataRate	CameraRate	NumFrames	NumMarkers	Units	OrigDataRate	OrigDataStartFrame	OrigNumFrames
200.000000	200.000000	4	61	mm	200.000000	368	1472
Frame#	Time	FHD			LBHD			RBHD			C7			T10			CLAV			LSHO			LUUPA			LMUPA			LDUPA			LLEP			LMEP			LRAD			LUL			LRFIN			RSHO			RUPA1			RMUPA			RDUPA			RLEP			RMEP			RRAD			RUL			RUFIN			LASI			RASI			USACR			LSACR			RSACR			LTHI1			LTHI2			LTHI3			LTHI4			LLFC			LMFC			LTIB1			LTIB2			LTIB3			LTIB4			LLMAL			LMMAL			LHEE			LMT1			LMT2			LMT5			RTHI			RTHI2			RTHI3			RTHI4			RLFC			RMFC			RTIB1			RTIB2			RTIB3			RTIB4			RLMAL			RMMAL			RHEE			RMT1			RMT2			RMT5			
		X1	Y1	Z1	X2	Y2	Z2	X3	Y3	Z3	X4	Y4	Z4	X5	Y5	Z5	X6	Y6	Z6	X7	Y7	Z7	X8	Y8	Z8	X9	Y9	Z9	X10	Y10	Z10	X11	Y11	Z11	X12	Y12	Z12	X13	Y13	Z13	X14	Y14	Z14	X15	Y15	Z15	X16	Y16	Z16	X17	Y17	Z17	X18	Y18	Z18	X19	Y19	Z19	X20	Y20	Z20	X21	Y21	Z21	X22	Y22	Z22	X23	Y23	Z23	X24	Y24	Z24	X25	Y25	Z25	X26	Y26	Z26	X27	Y27	Z27	X28	Y28	Z28	X29	Y29	Z29	X30	Y30	Z30	X31	Y31	Z31	X32	Y32	Z32	X33	Y33	Z33	X34	Y34	Z34	X35	Y35	Z35	X36	Y36	Z36	X37	Y37	Z37	X38	Y38	Z38	X39	Y39	Z39	X40	Y40	Z40	X41	Y41	Z41	X42	Y42	Z42	X43	Y43	Z43	X44	Y44	Z44	X45	Y45	Z45	X46	Y46	Z46	X47	Y47	Z47	X48	Y48	Z48	X49	Y49	Z49	X50	Y50	Z50	X51	Y51	Z51	X52	Y52	Z52	X53	Y53	Z53	X54	Y54	Z54	X55	Y55	Z55	X56	Y56	Z56	X57	Y57	Z57	X58	Y58	Z58	X59	Y59	Z59	X60	Y60	Z60	X61	Y61	Z61	

369	1.84	-221.4444427490235	1803.308715820313	-1110.43115234375	-373.0634155273438	1727.368286132813	-1182.010131835938	-392.5191650390626	1728.350463867188	-1043.032592773438	-402.3854370117189	1560.633544921875	-1091.283569335938	-411.8103027343751	1232.400390625	-1065.77587890625	-254.7558898925782	1515.526611328125	-1097.14697265625	-333.7239685058594	1549.880859375	-1249.611328125	-177.8179473876953	1424.569091796875	-1359.998657226563	-147.0020141601563	1461.321533203125	-1350.254028320313	-109.7338256835938	1417.23193359375	-1368.436279296875	-51.65353393554689	1422.657958984375	-1365.65185546875	-50.25742340087892	1363.475341796875	-1314.217041015625	199.5840148925782	1467.210571289063	-1282.712646484375	219.6258392333985	1427.404418945313	-1346.828002929688	292.0394897460938	1488.31689453125	-1299.798461914063	-319.2983398437501	1568.390991210938	-946.4682617187502	-167.2069396972657	1461.023803710938	-808.3062744140627	-131.7740173339844	1491.542724609375	-819.5220947265627	-99.63652801513675	1445.094116210938	-794.3273925781252	-55.05954360961915	1439.721313476563	-794.795104980469	-57.54375457763673	1382.053344726563	-844.9077758789065	209.9904785156251	1490.69384765625	-897.5653076171877	212.4056396484376	1458.069091796875	-823.7116699218752	285.5456848144532	1519.140869140625	-883.099792480469	-219.1994323730469	1055.819213867188	-1174.662963867188	-223.9071502685547	1079.265502929688	-921.5208129882815	-409.6237792968751	1147.5390625	-1056.949462890625	-414.8101806640626	1113.9677734375	-1081.805419921875	-416.571746826172	1117.006713867188	-1024.749877929688	-315.5071716308594	811.6077880859377	-1233.91357421875	-284.4628906250001	732.0928955078126	-1225.63427734375	-237.4923248291016	735.7286376953126	-1222.658081054688	-314.4417419433594	682.5893554687501	-1202.890747070313	-317.0648193359376	528.6254882812501	-1167.530639648438	-276.6091613769532	535.4607543945314	-1034.061645507813	-276.6625366210938	367.7681579589844	-1104.021728515625	-333.2404174804688	317.7193298339844	-1154.012939453125	-291.5434875488282	316.9782104492188	-1130.410766601563	-297.2449951171876	243.8905944824219	-1087.527587890625	-360.4018554687501	107.4457015991211	-1107.421997070313	-326.5010375976563	135.6151733398438	-1021.078308105469	-428.4044799804689	102.2629776000977	-1045.4296875	-217.0791931152344	59.65579986572267	-1023.498840332031	-208.5905303955079	53.41895294189455	-1072.06689453125	-260.9584960937501	34.97685241699219	-1122.502807617188	-247.2289276123047	792.1247558593752	-795.1302490234377	-194.7655029296876	752.0936279296876	-782.446472167969	-162.319808959961	759.9721069335939	-786.3406372070315	-199.6024627685547	668.3684082031251	-786.5279541015627	-205.4376678466797	619.4429931640626	-789.6627197265627	-134.9921569824219	585.5748291015626	-907.4111938476565	-265.8695983886719	531.1444091796876	-817.367370605469	-361.2481994628907	580.8930053710939	-815.242370605469	-352.8744812011719	535.6223754882814	-823.1746215820315	-386.7309875488282	508.9551696777345	-862.003601074219	-566.9494628906251	523.7412109375001	-897.3371582031252	-519.6125488281251	489.723114013672	-973.570983886719	-587.5085449218751	580.2708740234376	-966.6028442382815	-579.5001220703126	358.4414367675782	-977.3055419921877	-588.6029663085939	355.6601562500001	-929.9672851562502	-626.9167480468751	400.657684326172	-892.071716308594	
370	1.845	-221.0957489013672	1803.313720703125	-1111.025268554688	-372.8397827148438	1727.280517578125	-1182.502197265625	-392.2011108398439	1728.32080078125	-1043.381591796875	-402.0606079101564	1560.601318359375	-1091.681762695313	-411.5352478027345	1232.413208007813	-1066.028930664063	-254.5249938964844	1515.541259765625	-1097.60693359375	-333.5655212402344	1549.904052734375	-1250.088134765625	-177.5453186035157	1424.824829101563	-1360.594116210938	-146.7341918945313	1461.225952148438	-1350.708129882813	-109.3822326660157	1417.25537109375	-1368.880493164063	-51.498104095459	1422.665649414063	-1366.195678710938	-49.89201736450197	1363.376586914063	-1315.068969726563	199.9971160888672	1467.3349609375	-1283.288452148438	219.8887023925782	1427.503051757813	-1347.4814453125	292.3886108398438	1488.318725585938	-1300.431640625	-318.8615417480469	1568.443359375	-946.995544433594	-166.8965301513672	1461.316162109375	-808.6629028320315	-131.4359283447266	1491.756469726563	-819.9292602539065	-99.12553405761722	1445.516967773438	-794.747741699219	-54.72708892822267	1440.082397460938	-795.2097167968752	-56.9494094848633	1382.196411132813	-845.3223876953127	210.4934387207032	1490.984252929688	-898.0447387695315	212.8481597900391	1458.31884765625	-824.2302856445315	286.0474548339844	1519.400024414063	-883.6377563476565	-218.7962646484376	1055.67138671875	-1174.728515625	-223.8347778320313	1079.337158203125	-921.5977172851565	-409.5844726562501	1147.616821289063	-1057.157348632813	-414.4551391601564	1114.011352539063	-1082.17138671875	-416.3209533691407	1117.100219726563	-1025.11279296875	-315.3127441406251	811.5110473632815	-1234.059448242188	-283.8701782226563	732.3364868164064	-1225.7783203125	-237.2225341796876	735.7185058593751	-1222.702270507813	-314.2297973632813	682.5476684570314	-1202.998779296875	-317.0160827636719	528.6166992187501	-1167.627685546875	-276.6082458496094	535.4569091796876	-1034.061645507813	-276.5360717773438	367.7509460449219	-1104.079956054688	-333.1131286621094	317.6527099609376	-1154.083862304688	-291.5800476074219	316.8665466308594	-1130.400024414063	-297.2494812011719	243.8324432373047	-1087.575561523438	-360.4039001464844	107.4432449340821	-1107.420654296875	-326.4913330078126	135.5860595703125	-1021.038208007813	-428.4529418945314	102.2238998413086	-1045.382202148438	-217.0812530517579	59.63544082641603	-1023.500366210938	-208.5670471191407	53.42409515380861	-1072.038818359375	-260.9488830566407	34.97932052612305	-1122.495849609375	-247.8856048583985	792.036315917969	-795.2769165039065	-195.3318939208985	751.7542114257814	-782.6832275390627	-162.9219665527344	759.4891357421876	-786.5872802734377	-200.728988647461	667.9871826171876	-786.865173339844	-206.9608459472657	619.2170410156251	-790.0274658203127	-136.3443450927735	584.7084960937501	-907.812438964844	-267.4617919921876	531.2968750000001	-817.6726684570315	-363.0778808593751	581.2295532226564	-815.7320556640627	-354.4945068359376	535.9868774414064	-823.5554199218752	-388.4938354492189	509.6228942871095	-862.4869384765627	-568.8399658203126	524.9261474609376	-897.8795166015627	-521.1759643554689	490.6331787109376	-974.1274414062502	-588.0236816406251	582.1517944335939	-966.8304443359377	-583.6863403320314	360.2578735351563	-978.8906860351565	-592.4903564453126	357.4176940917969	-930.857360839844	-630.3305053710939	402.507537841797	-894.0631103515627	
371	1.85	-220.8448181152344	1803.265747070313	-1111.563720703125	-372.5965270996094	1727.1904296875	-1182.94091796875	-392.089080810547	1728.279174804688	-1043.732055664063	-401.8294067382814	1560.587768554688	-1092.16650390625	-411.3634033203126	1232.4365234375	-1066.270263671875	-254.1959228515626	1515.427490234375	-1097.986572265625	-333.2974853515626	1549.837524414063	-1250.4384765625	-177.7431030273438	1424.761962890625	-1360.756713867188	-146.5091094970703	1461.176879882813	-1351.19580078125	-109.1561431884766	1417.265747070313	-1369.410888671875	-51.30461883544923	1422.69873046875	-1366.677368164063	-49.64556884765626	1363.534057617188	-1315.799438476563	200.2049407958985	1467.341430664063	-1283.842407226563	219.6493682861329	1427.733276367188	-1347.922973632813	292.6097717285157	1488.344482421875	-1301.014404296875	-318.6983032226563	1568.475341796875	-947.3045043945315	-166.1609191894532	1461.558227539063	-809.213806152344	-131.227767944336	1491.86181640625	-820.1798095703127	-98.76197052001956	1445.69873046875	-795.181579589844	-54.37859344482423	1440.34033203125	-795.3769531250002	-56.53322601318361	1382.357177734375	-845.6472778320315	209.9049377441407	1491.651733398438	-897.6279907226565	213.4819030761719	1458.64404296875	-824.7308349609377	286.2825927734376	1519.565551757813	-883.9448242187502	-218.4309234619141	1055.563842773438	-1174.80029296875	-223.6954650878907	1079.28125	-921.7128906250002	-409.365936279297	1147.660888671875	-1057.317626953125	-414.5377807617189	1113.993896484375	-1082.41455078125	-415.1517028808595	1117.169189453125	-1025.583984375	-315.0685424804688	811.482116699219	-1234.196411132813	-283.7289733886719	732.2711791992189	-1225.869384765625	-236.9287109375001	735.6137084960939	-1222.786743164063	-314.1088867187501	682.5136108398439	-1203.08447265625	-316.9324645996094	528.5453491210939	-1167.674560546875	-276.6350097656251	535.4114990234376	-1034.148315429688	-276.5302734375001	367.7014770507813	-1104.157836914063	-333.0544433593751	317.5985412597657	-1154.150634765625	-291.4488220214844	316.6053161621094	-1130.433471679688	-297.2333679199219	243.8074493408204	-1087.589721679688	-360.4114685058594	107.4263458251953	-1107.433837890625	-326.5284729003907	135.566146850586	-1021.044921875	-428.4099121093751	102.2182693481446	-1045.374877929688	-217.0904998779297	59.59037017822267	-1023.501281738281	-208.5757141113282	53.42753219604494	-1072.0478515625	-260.9781188964844	34.98581695556641	-1122.514038085938	-248.5286865234376	791.7713012695315	-795.4250488281252	-196.2228240966797	751.3725585937501	-782.7579345703127	-163.5086212158203	759.0986938476564	-786.8312988281252	-201.8283386230469	667.5786132812501	-787.160583496094	-208.0957641601563	619.0733032226564	-790.3894042968752	-137.886215209961	584.3451538085939	-907.944274902344	-269.2231750488282	531.1045532226564	-818.3823852539065	-364.4246215820313	581.6051635742189	-816.2515258789065	-356.5407409667969	536.3674316406251	-824.2480468750002	-390.3677978515626	510.0721435546876	-863.138610839844	-570.3824462890626	525.9793090820314	-898.6399536132815	-522.9963989257814	491.5538635253907	-974.5706787109377	-588.3252563476564	583.7723999023439	-967.1715087890627	-587.3295898437501	362.1134948730469	-980.1110839843752	-596.5122070312501	359.2446289062501	-932.1112060546877	-634.1770629882814	404.6138305664064	-895.630065917969	
372	1.855	-220.7742919921876	1803.25341796875	-1111.8984375	-372.3143310546876	1727.189575195313	-1183.322021484375	-391.991424560547	1728.240112304688	-1044.119873046875	-401.5745544433595	1560.602905273438	-1092.579345703125	-411.1502990722657	1232.526977539063	-1066.535766601563	-253.9494781494141	1515.417602539063	-1098.441284179688	-333.0869140625001	1549.841796875	-1250.897216796875	-177.5708465576172	1424.77685546875	-1361.19580078125	-145.9354400634766	1461.037841796875	-1351.711181640625	-108.8776931762696	1417.230712890625	-1369.925903320313	-51.09915161132814	1422.720336914063	-1367.091552734375	-49.20311355590822	1363.396850585938	-1316.29052734375	200.5236206054688	1467.461181640625	-1284.295043945313	219.8051757812501	1427.879760742188	-1348.4912109375	292.9059448242188	1488.390380859375	-1301.515502929688	-318.3356018066407	1568.5400390625	-947.8012695312502	-165.9735260009766	1461.627075195313	-809.572692871094	-130.6724700927735	1492.003662109375	-820.7644042968752	-98.23614501953128	1445.884643554688	-795.6472167968752	-54.02427673339845	1440.558715820313	-796.086120605469	-56.06427001953126	1382.59814453125	-846.1328735351565	211.6730346679688	1491.448852539063	-899.2068481445315	213.6652832031251	1458.97216796875	-824.973571777344	286.6367492675782	1519.86669921875	-884.3457031250002	-218.1101074218751	1055.524047851563	-1174.737060546875	-223.5604400634766	1079.224365234375	-921.8173828125002	-409.1480712890626	1147.708740234375	-1057.501831054688	-414.2681274414064	1113.979370117188	-1082.679565429688	-414.8245849609376	1117.238891601563	-1026.061279296875	-314.8851318359376	811.401550292969	-1234.29541015625	-283.6447448730469	732.2219848632814	-1225.907592773438	-236.7472534179688	735.5662841796876	-1222.80078125	-313.9117431640626	682.4734497070314	-1203.15966796875	-316.3862609863282	528.3463745117189	-1167.780883789063	-276.5234680175782	535.3794555664064	-1034.208618164063	-276.4880676269532	367.6736450195313	-1104.253295898438	-332.9441223144532	317.5726013183594	-1154.246215820313	-291.3111267089844	316.5803527832032	-1130.50048828125	-297.2424926757813	243.7995300292969	-1087.606323242188	-360.3858947753907	107.3722076416016	-1107.433715820313	-326.5458068847657	135.5592651367188	-1021.042236328125	-428.4515991210939	102.2375411987305	-1045.383422851563	-217.0983123779297	59.58972930908205	-1023.508239746094	-208.5700378417969	53.43844985961915	-1072.033203125	-260.9494018554688	34.96373367309571	-1122.514892578125	-249.0934143066407	791.5679321289065	-795.596374511719	-196.8605499267579	751.0826416015626	-783.039489746094	-164.5323028564453	758.4011840820314	-787.1350708007815	-202.9576568603516	667.2514648437501	-787.3853149414065	-209.8568572998047	618.6243286132814	-790.7149047851565	-139.6517944335938	583.6810913085939	-908.1992797851565	-271.1865539550782	531.1480712890626	-818.5844726562502	-365.9150085449219	581.7662353515626	-816.914245605469	-358.2901611328126	536.8599243164064	-824.4959106445315	-392.2348937988282	510.3971252441407	-863.3868408203127	-571.8029174804689	527.0980834960939	-899.1873779296877	-524.8836669921876	492.4421386718751	-975.0479125976565	-588.9509887695314	585.4931030273439	-967.6243896484377	-591.0015869140626	364.0259094238282	-981.2686157226565	-600.1506958007814	360.9283142089844	-933.8301391601565	-637.5577392578126	406.658660888672	-897.1489868164065	
